<svg width="170" height="152" viewBox="0 0 170 152" fill="none" xmlns="http://www.w3.org/2000/svg">
<path d="M101.667 51H135M101.667 80.1667H126.667" stroke="black" stroke-width="1.5" stroke-linecap="round" stroke-linejoin="round"/>
<path d="M126.667 1H43.3333C20.3215 1 1.66667 19.6548 1.66667 42.6667V109.333C1.66667 132.345 20.3215 151 43.3333 151H126.667C149.679 151 168.333 132.345 168.333 109.333V42.6667C168.333 19.6548 149.679 1 126.667 1Z" stroke="black" stroke-width="1.5" stroke-linecap="round" stroke-linejoin="round"/>
<path d="M26.6667 109.333C36.7333 87.8249 74.2667 86.4166 85 109.333M72.5 50.9999C72.5 55.4202 70.744 59.6594 67.6184 62.785C64.4928 65.9106 60.2536 67.6666 55.8333 67.6666C51.4131 67.6666 47.1738 65.9106 44.0482 62.785C40.9226 59.6594 39.1667 55.4202 39.1667 50.9999C39.1667 46.5796 40.9226 42.3404 44.0482 39.2148C47.1738 36.0892 51.4131 34.3333 55.8333 34.3333C60.2536 34.3333 64.4928 36.0892 67.6184 39.2148C70.744 42.3404 72.5 46.5796 72.5 50.9999Z" stroke="black" stroke-width="1.5" stroke-linecap="round" stroke-linejoin="round"/>
</svg>
