<svg width="100" height="100" viewBox="0 0 100 100" fill="none" xmlns="http://www.w3.org/2000/svg">
<path d="M62.4987 94.7915H37.4987C31.9987 94.7915 27.4154 94.2499 23.5404 93.0832C22.1237 92.6666 21.2071 91.2914 21.2904 89.8331C22.3321 77.3748 34.9571 67.583 49.9987 67.583C65.0404 67.583 77.6237 77.3331 78.7071 89.8331C78.8321 91.3331 77.9154 92.6666 76.4571 93.0832C72.5821 94.2499 67.9987 94.7915 62.4987 94.7915ZM27.9987 87.7498C30.7487 88.2914 33.8737 88.5415 37.4987 88.5415H62.4987C66.1237 88.5415 69.2487 88.2914 71.9987 87.7498C69.7904 79.7498 60.6654 73.833 49.9987 73.833C39.3321 73.833 30.2071 79.7498 27.9987 87.7498Z" fill="#253017"/>
<path d="M62.4987 8.33301H37.4987C16.6654 8.33301 8.33203 16.6663 8.33203 37.4997V62.4997C8.33203 78.2497 13.082 86.8747 24.4154 90.083C25.332 79.2497 36.457 70.7079 49.9987 70.7079C63.5404 70.7079 74.6654 79.2497 75.582 90.083C86.9154 86.8747 91.6654 78.2497 91.6654 62.4997V37.4997C91.6654 16.6663 83.332 8.33301 62.4987 8.33301ZM49.9987 59.0413C41.7487 59.0413 35.082 52.3331 35.082 44.0831C35.082 35.8331 41.7487 29.1663 49.9987 29.1663C58.2487 29.1663 64.9154 35.8331 64.9154 44.0831C64.9154 52.3331 58.2487 59.0413 49.9987 59.0413Z" stroke="#253017" stroke-width="6" stroke-linecap="round" stroke-linejoin="round"/>
<path d="M49.9987 62.1669C40.0404 62.1669 31.957 54.0421 31.957 44.0837C31.957 34.1254 40.0404 26.042 49.9987 26.042C59.957 26.042 68.0404 34.1254 68.0404 44.0837C68.0404 54.0421 59.957 62.1669 49.9987 62.1669ZM49.9987 32.292C43.4987 32.292 38.207 37.5837 38.207 44.0837C38.207 50.6254 43.4987 55.9169 49.9987 55.9169C56.4987 55.9169 61.7904 50.6254 61.7904 44.0837C61.7904 37.5837 56.4987 32.292 49.9987 32.292Z" fill="#253017"/>
</svg>
