<svg width="152" height="152" viewBox="0 0 152 152" fill="none" xmlns="http://www.w3.org/2000/svg">
<path d="M76 84.3333C89.8071 84.3333 101 73.1404 101 59.3333C101 45.5261 89.8071 34.3333 76 34.3333C62.1929 34.3333 51 45.5261 51 59.3333C51 73.1404 62.1929 84.3333 76 84.3333Z" stroke="black" stroke-width="2" stroke-linecap="round" stroke-linejoin="round"/>
<path d="M117.667 117.667C117.667 99.2499 99.0085 84.3333 76.0002 84.3333C52.9918 84.3333 34.3335 99.2499 34.3335 117.667" stroke="black" stroke-width="2" stroke-linecap="round" stroke-linejoin="round"/>
<path d="M126 1H26C12.1929 1 1 12.1929 1 26V126C1 139.807 12.1929 151 26 151H126C139.807 151 151 139.807 151 126V26C151 12.1929 139.807 1 126 1Z" stroke="black" stroke-width="2" stroke-linecap="round" stroke-linejoin="round"/>
</svg>
