<svg width="200" height="200" viewBox="0 0 200 200" fill="none" xmlns="http://www.w3.org/2000/svg">
<path d="M50.7501 124.992C47.5056 117.658 45.8308 109.727 45.8334 101.708C45.8334 70.8334 70.0834 45.8251 100 45.8251C129.917 45.8251 154.167 70.8418 154.167 101.708C154.169 109.727 152.495 117.658 149.25 124.992M100 16.6584V24.9918M183.333 99.9918H175M25.0001 99.9918H16.6667M158.917 41.0668L153.025 46.9584M46.9751 46.9668L41.0834 41.0751M120.975 160.883C129.392 158.158 132.775 150.45 133.725 142.7C134.008 140.383 132.1 138.458 129.767 138.458H70.6418C70.0719 138.449 69.5067 138.561 68.9834 138.787C68.4602 139.013 67.9908 139.347 67.6063 139.768C67.2219 140.188 66.9312 140.686 66.7534 141.227C66.5756 141.769 66.5148 142.342 66.5751 142.908C67.5084 150.642 69.8584 156.292 78.7751 160.875M120.975 160.883L78.7751 160.875M120.975 160.883C119.967 177.092 115.283 183.508 100.058 183.325C83.7751 183.625 80.0251 175.683 78.7751 160.875" stroke="black" stroke-width="1.5" stroke-linecap="round" stroke-linejoin="round"/>
</svg>
