<?xml version="1.0" encoding="UTF-8"?>
<svg xmlns="http://www.w3.org/2000/svg" xmlns:xlink="http://www.w3.org/1999/xlink" width="24px" height="24px" viewBox="0 0 24 24" version="1.1">
<g id="surface1">
<path style=" stroke:none;fill-rule:nonzero;fill:rgb(91.37255%,96.862745%,90.588236%);fill-opacity:1;" d="M 12 0 C 18.628906 0 24 5.371094 24 12 C 24 18.628906 18.628906 24 12 24 C 5.371094 24 0 18.628906 0 12 C 0 5.371094 5.371094 0 12 0 Z M 12 0 "/>
<path style=" stroke:none;fill-rule:nonzero;fill:rgb(14.509805%,18.82353%,9.019608%);fill-opacity:1;" d="M 12 18 C 11.171875 18 10.390625 17.839844 9.664062 17.523438 C 8.933594 17.207031 8.296875 16.777344 7.757812 16.234375 C 7.21875 15.691406 6.789062 15.054688 6.472656 14.320312 C 6.15625 13.589844 6 12.808594 6 11.976562 L 6 8.035156 C 6 7.808594 6.097656 7.644531 6.296875 7.550781 C 6.492188 7.453125 6.683594 7.472656 6.863281 7.601562 L 9.570312 9.648438 C 9.84375 9.203125 10.140625 8.742188 10.460938 8.273438 C 10.785156 7.800781 11.140625 7.324219 11.527344 6.835938 C 11.65625 6.675781 11.8125 6.597656 12 6.601562 C 12.1875 6.605469 12.347656 6.683594 12.472656 6.835938 C 12.851562 7.324219 13.207031 7.800781 13.53125 8.265625 C 13.859375 8.730469 14.15625 9.191406 14.429688 9.648438 L 17.136719 7.601562 C 17.316406 7.46875 17.507812 7.453125 17.703125 7.550781 C 17.902344 7.648438 18 7.808594 18 8.035156 L 18 11.976562 C 18 12.808594 17.84375 13.589844 17.527344 14.320312 C 17.210938 15.054688 16.78125 15.691406 16.242188 16.234375 C 15.703125 16.777344 15.066406 17.207031 14.335938 17.523438 C 13.609375 17.839844 12.828125 18 12 18 Z M 8 13.984375 C 8 13.476562 8.101562 12.90625 8.308594 12.273438 C 8.515625 11.640625 8.820312 10.960938 9.226562 10.222656 L 6.667969 8.292969 L 6.667969 11.976562 C 6.667969 12.828125 6.855469 13.609375 7.230469 14.324219 C 7.605469 15.035156 8.109375 15.621094 8.742188 16.082031 C 8.515625 15.796875 8.335938 15.480469 8.199219 15.125 C 8.066406 14.769531 8 14.390625 8 13.984375 Z M 12 17.332031 C 12.921875 17.332031 13.707031 17.003906 14.359375 16.351562 C 15.007812 15.699219 15.332031 14.910156 15.332031 13.984375 C 15.332031 13.195312 15.042969 12.203125 14.460938 11 C 13.878906 9.800781 13.058594 8.566406 12 7.289062 C 10.941406 8.570312 10.121094 9.808594 9.539062 11.003906 C 8.957031 12.203125 8.667969 13.195312 8.667969 13.984375 C 8.667969 14.910156 8.992188 15.699219 9.640625 16.351562 C 10.292969 17.003906 11.078125 17.332031 12 17.332031 Z M 16 13.984375 C 16 14.390625 15.933594 14.769531 15.800781 15.125 C 15.664062 15.480469 15.484375 15.796875 15.257812 16.082031 C 15.890625 15.621094 16.394531 15.035156 16.769531 14.324219 C 17.144531 13.609375 17.332031 12.828125 17.332031 11.976562 L 17.332031 8.292969 L 14.773438 10.21875 C 15.179688 10.957031 15.484375 11.636719 15.691406 12.269531 C 15.898438 12.902344 16 13.472656 16 13.984375 Z M 16 13.984375 "/>
</g>
</svg>
