<svg width="24" height="24" viewBox="0 0 24 24" fill="none" xmlns="http://www.w3.org/2000/svg">
<path d="M12 4C6.53996 4 2 7.51558 2 12V12.002C2.00212 12.5009 2.06232 12.9993 2.17969 13.4883C2.19611 13.5567 2.22679 13.6209 2.26971 13.6767C2.31263 13.7324 2.36683 13.7785 2.42877 13.8118C2.49071 13.8452 2.55899 13.8651 2.62915 13.8703C2.69931 13.8755 2.76978 13.8658 2.83594 13.8418C3.00292 13.7818 3.17054 13.7273 3.3418 13.6797C6.58838 12.8103 9.72836 14.3316 10.4316 16.9571C10.6316 17.7105 10.6164 18.5098 10.3848 19.2989C10.364 19.3694 10.3591 19.4436 10.3703 19.5162C10.3815 19.5889 10.4086 19.6581 10.4496 19.7191C10.4906 19.7801 10.5446 19.8313 10.6077 19.869C10.6707 19.9068 10.7413 19.9301 10.8145 19.9375C11.2066 19.9771 11.6009 19.9976 11.9961 20H12C17.46 20 22 16.4844 22 12C22 7.51558 17.46 4 12 4ZM12 5C17.0334 5 21 8.20014 21 12C21 15.7988 17.0353 18.9983 12.0039 19C11.7878 18.9987 11.5728 18.9783 11.3574 18.9648C11.4902 18.2051 11.5915 17.4343 11.3965 16.6992C10.5283 13.458 6.77492 11.7293 3.08789 12.7148C3.05496 12.4758 3.00102 12.2385 3 11.998C3.00135 8.19904 6.96748 5 12 5ZM11.5 6C10.6775 6 10 6.67749 10 7.5C10 8.3225 10.6775 9 11.5 9C12.3225 9 13 8.3225 13 7.5C13 6.67749 12.3225 6 11.5 6ZM7.5 7C6.6775 7 6 7.67749 6 8.5C6 9.3225 6.6775 10 7.5 10C8.3225 10 9 9.3225 9 8.5C9 7.67749 8.3225 7 7.5 7ZM11.5 7C11.7821 7 12 7.21793 12 7.5C12 7.78206 11.7821 8 11.5 8C11.2179 8 11 7.78206 11 7.5C11 7.21793 11.2179 7 11.5 7ZM15.5 7C14.6775 7 14 7.67749 14 8.5C14 9.3225 14.6775 10 15.5 10C16.3225 10 17 9.3225 17 8.5C17 7.67749 16.3225 7 15.5 7ZM7.5 8C7.78207 8 8 8.21793 8 8.5C8 8.78206 7.78207 9 7.5 9C7.21794 9 7 8.78206 7 8.5C7 8.21793 7.21794 8 7.5 8ZM15.5 8C15.7821 8 16 8.21793 16 8.5C16 8.78206 15.7821 9 15.5 9C15.2179 9 15 8.78206 15 8.5C15 8.21793 15.2179 8 15.5 8ZM18.5 10C17.6775 10 17 10.6775 17 11.5C17 12.3225 17.6775 13 18.5 13C19.3225 13 20 12.3225 20 11.5C20 10.6775 19.3225 10 18.5 10ZM18.5 11C18.7821 11 19 11.2179 19 11.5C19 11.7821 18.7821 12 18.5 12C18.2179 12 18 11.7821 18 11.5C18 11.2179 18.2179 11 18.5 11ZM15.5 14C14.6775 14 14 14.6775 14 15.5C14 16.3225 14.6775 17 15.5 17C16.3225 17 17 16.3225 17 15.5C17 14.6775 16.3225 14 15.5 14ZM15.5 15C15.7821 15 16 15.2179 16 15.5C16 15.7821 15.7821 16 15.5 16C15.2179 16 15 15.7821 15 15.5C15 15.2179 15.2179 15 15.5 15Z" fill="#253017"/>
</svg>
