<svg width="200" height="200" viewBox="0 0 200 200" fill="none" xmlns="http://www.w3.org/2000/svg">
<path d="M107.496 123.329C90.3067 168.327 42.1891 123.329 25 168.327M126.245 123.329H137.502C155.178 123.329 164.021 123.329 169.51 117.839C175 112.349 175 103.507 175 85.8306V70.8314C175 53.1548 175 44.3127 169.51 38.823C164.021 33.3333 155.193 33.3333 137.502 33.3333H107.503C89.8268 33.3333 80.9922 33.3333 75.5025 38.823C70.8527 43.4727 70.1327 50.5299 70.0277 63.3318" stroke="black" stroke-width="1.5" stroke-linecap="round" stroke-linejoin="round"/>
<path d="M66.248 123.329C76.6028 123.329 84.997 114.935 84.997 104.58C84.997 94.2251 76.6028 85.8308 66.248 85.8308C55.8931 85.8308 47.4989 94.2251 47.4989 104.58C47.4989 114.935 55.8931 123.329 66.248 123.329Z" stroke="black" stroke-width="1.5" stroke-linecap="round" stroke-linejoin="round"/>
<path d="M99.9962 63.3318H144.994M144.994 93.3303H122.495" stroke="black" stroke-width="1.5" stroke-linecap="round" stroke-linejoin="round"/>
</svg>
